<svg width="40" height="40" viewBox="0 0 40 40" fill="none" xmlns="http://www.w3.org/2000/svg">
<path d="M36.6668 21.6666V14.9999C36.6668 6.66659 33.3335 3.33325 25.0002 3.33325H15.0002C6.66683 3.33325 3.3335 6.66659 3.3335 14.9999V24.9999C3.3335 33.3333 6.66683 36.6666 15.0002 36.6666H21.6668" fill="white" fill-opacity="0.1"/>
<path d="M36.6668 21.6666V14.9999C36.6668 6.66659 33.3335 3.33325 25.0002 3.33325H15.0002C6.66683 3.33325 3.3335 6.66659 3.3335 14.9999V24.9999C3.3335 33.3333 6.66683 36.6666 15.0002 36.6666H21.6668" stroke="white" stroke-width="2" stroke-linecap="round" stroke-linejoin="round"/>
<path d="M12.2168 24.1501L16.1835 19.0001C16.7501 18.2668 17.8001 18.1334 18.5335 18.7001L21.5835 21.1001C22.3168 21.6668 23.3668 21.5334 23.9335 20.8168L27.7835 15.8501" fill="white" fill-opacity="0.1"/>
<path d="M12.2168 24.1501L16.1835 19.0001C16.7501 18.2668 17.8001 18.1334 18.5335 18.7001L21.5835 21.1001C22.3168 21.6668 23.3668 21.5334 23.9335 20.8168L27.7835 15.8501" stroke="white" stroke-width="2" stroke-linecap="round" stroke-linejoin="round"/>
<path d="M32.4669 26.3667L32.9335 27.3166C33.1669 27.7833 33.7502 28.2166 34.2668 28.3166L34.9002 28.4166C36.8002 28.7333 37.2502 30.1333 35.8835 31.5166L35.3002 32.1C34.9168 32.5 34.7002 33.2666 34.8169 33.8L34.9002 34.15C35.4169 36.45 34.2002 37.3333 32.2002 36.1333L31.7668 35.8833C31.2502 35.5833 30.4169 35.5833 29.9002 35.8833L29.4668 36.1333C27.4502 37.35 26.2335 36.45 26.7668 34.15L26.8502 33.8C26.9668 33.2666 26.7502 32.5 26.3669 32.1L25.7835 31.5166C24.4169 30.1333 24.8668 28.7333 26.7668 28.4166L27.4002 28.3166C27.9002 28.2333 28.5002 27.7833 28.7335 27.3166L29.2002 26.3667C30.1002 24.55 31.5669 24.55 32.4669 26.3667Z" fill="white" fill-opacity="0.1" stroke="white" stroke-width="2" stroke-linecap="round" stroke-linejoin="round"/>
</svg>
