<svg width="64" height="65" viewBox="0 0 64 65" fill="none" xmlns="http://www.w3.org/2000/svg">
<rect y="0.200195" width="64" height="64" rx="32" fill="#EF3340" fill-opacity="0.1"/>
<path d="M20 30.7002C19.1716 30.7002 18.5 31.3718 18.5 32.2002C18.5 33.0286 19.1716 33.7002 20 33.7002V30.7002ZM45.0607 33.2609C45.6464 32.6751 45.6464 31.7253 45.0607 31.1395L35.5147 21.5936C34.9289 21.0078 33.9792 21.0078 33.3934 21.5936C32.8076 22.1794 32.8076 23.1291 33.3934 23.7149L41.8787 32.2002L33.3934 40.6855C32.8076 41.2713 32.8076 42.221 33.3934 42.8068C33.9792 43.3926 34.9289 43.3926 35.5147 42.8068L45.0607 33.2609ZM20 33.7002H44V30.7002H20V33.7002Z" fill="#EF3340"/>
</svg>
