<svg width="64" height="65" viewBox="0 0 64 65" fill="none" xmlns="http://www.w3.org/2000/svg">
<rect y="0.200195" width="64" height="64" rx="32" fill="#EF3340" fill-opacity="0.1"/>
<path d="M44 33.7002C44.8284 33.7002 45.5 33.0286 45.5 32.2002C45.5 31.3718 44.8284 30.7002 44 30.7002V33.7002ZM18.9393 31.1395C18.3536 31.7253 18.3536 32.6751 18.9393 33.2609L28.4853 42.8068C29.0711 43.3926 30.0208 43.3926 30.6066 42.8068C31.1924 42.221 31.1924 41.2713 30.6066 40.6855L22.1213 32.2002L30.6066 23.7149C31.1924 23.1291 31.1924 22.1794 30.6066 21.5936C30.0208 21.0078 29.0711 21.0078 28.4853 21.5936L18.9393 31.1395ZM44 30.7002L20 30.7002V33.7002H44V30.7002Z" fill="#EF3340"/>
</svg>
